<?xml version="1.0" encoding="UTF-8"?>
<svg version="1.1" xmlns="http://www.w3.org/2000/svg" width="256" height="256">
<path d="M0 0 C3.87901215 3.51817381 5.42919301 6.94837053 5.96229172 12.08548164 C6.0779211 15.32569504 6.09276084 18.5529101 6.07568359 21.79516602 C6.08094055 23.02525391 6.08619751 24.2553418 6.09161377 25.52270508 C6.10252155 28.88022089 6.10001281 32.23717887 6.09047651 35.5946629 C6.0828523 39.11657763 6.08993301 42.63846941 6.09463501 46.16038513 C6.10008384 52.07238009 6.09292321 57.9842624 6.07861328 63.89624023 C6.0622808 70.72246207 6.06758298 77.54841516 6.0840925 84.37463051 C6.09772332 90.24660236 6.09961948 96.1184935 6.09177649 101.99047607 C6.08710968 105.49276027 6.08644781 108.99491829 6.09638596 112.49719429 C6.10669184 116.40131133 6.09239213 120.30512921 6.07568359 124.20922852 C6.08479263 125.94169075 6.08479263 125.94169075 6.09408569 127.70915222 C6.04950009 133.33134346 5.99020868 137.64697506 2.6875 142.4375 C-1.22685512 145.89669755 -4.25384784 147.0504485 -9.35546875 146.7578125 C-13.58486677 146.0655757 -16.43668281 144.64381737 -18.95665932 141.17289734 C-20.46733677 138.12511811 -20.68947628 136.24023789 -20.69345093 132.85864258 C-20.7019104 131.74832672 -20.71036987 130.63801086 -20.71908569 129.49404907 C-20.713013 128.28558319 -20.70694031 127.07711731 -20.70068359 125.83203125 C-20.70594055 124.55186127 -20.71119751 123.27169128 -20.71661377 121.95272827 C-20.73026952 118.44858117 -20.72499608 114.94469958 -20.71547651 111.44054794 C-20.70787083 107.77000981 -20.71492805 104.09949412 -20.71963501 100.42895508 C-20.72508992 94.26542081 -20.71790793 88.10199444 -20.70361328 81.93847656 C-20.6872872 74.81690097 -20.6925759 67.69558306 -20.7090925 60.57401371 C-20.72271494 54.45496703 -20.72462334 48.33599783 -20.71677649 42.21694088 C-20.71210412 38.5643129 -20.71146306 34.91180595 -20.72138596 31.25918579 C-20.73167642 27.18695869 -20.71740592 23.11517447 -20.70068359 19.04296875 C-20.70675629 17.83450287 -20.71282898 16.62603699 -20.71908569 15.38095093 C-20.71062622 14.27063507 -20.70216675 13.16031921 -20.69345093 12.01635742 C-20.69175431 10.57289192 -20.69175431 10.57289192 -20.69002342 9.1002655 C-20.23671326 5.9029575 -19.20086002 4.03845545 -17.3125 1.4375 C-11.56118338 -2.44129493 -6.19853667 -2.92383805 0 0 Z " fill="#000000" transform="translate(194.3125,55.5625)"/>
<path d="M0 0 C3.10911069 2.04918659 4.11359951 3.50153651 5.75 6.8125 C6.12752342 9.4752655 6.12752342 9.4752655 6.13095093 12.39135742 C6.1394104 13.50167328 6.14786987 14.61198914 6.15658569 15.75595093 C6.150513 16.96441681 6.14444031 18.17288269 6.13818359 19.41796875 C6.14344055 20.69813873 6.14869751 21.97830872 6.15411377 23.29727173 C6.16776952 26.80141883 6.16249608 30.30530042 6.15297651 33.80945206 C6.14537083 37.47999019 6.15242805 41.15050588 6.15713501 44.82104492 C6.16258992 50.98457919 6.15540793 57.14800556 6.14111328 63.31152344 C6.1247872 70.43309903 6.1300759 77.55441694 6.1465925 84.67598629 C6.16021494 90.79503297 6.16212334 96.91400217 6.15427649 103.03305912 C6.14960412 106.6856871 6.14896306 110.33819405 6.15888596 113.99081421 C6.16917642 118.06304131 6.15490592 122.13482553 6.13818359 126.20703125 C6.14729263 128.01973007 6.14729263 128.01973007 6.15658569 129.86904907 C6.14812622 130.97936493 6.13966675 132.08968079 6.13095093 133.23364258 C6.12981985 134.19595291 6.12868877 135.15826324 6.12752342 136.1497345 C5.67421326 139.3470425 4.63836002 141.21154455 2.75 143.8125 C-1.75938987 146.85371642 -5.94265723 147.74472787 -11.25 146.8125 C-15.68498182 144.72052744 -17.82549607 142.59032126 -19.65077591 138.03735352 C-20.92375568 133.31091883 -20.66403213 128.42356743 -20.63818359 123.5625 C-20.64344055 122.34377197 -20.64869751 121.12504395 -20.65411377 119.86938477 C-20.66502141 116.54279072 -20.66251252 113.21675972 -20.65297651 109.89019775 C-20.64535049 106.39944738 -20.65243366 102.90872012 -20.65713501 99.41796875 C-20.66258404 93.55724803 -20.65542345 87.69664094 -20.64111328 81.8359375 C-20.62478832 75.07221876 -20.63007744 68.30877137 -20.6465925 61.5450592 C-20.66023178 55.72487576 -20.66211513 49.90477374 -20.65427649 44.08457947 C-20.64961335 40.61412105 -20.64893747 37.14378994 -20.65888596 33.67333984 C-20.66920707 29.80295364 -20.65487835 25.93286834 -20.63818359 22.0625 C-20.64425629 20.92047119 -20.65032898 19.77844238 -20.65658569 18.60180664 C-20.6084124 12.56729864 -20.22628732 8.11447104 -17.25 2.8125 C-12.24826384 -1.87662765 -6.33337138 -2.31411647 0 0 Z " fill="#000000" transform="translate(76.25,55.1875)"/>
<path d="M0 0 C27.06 0 54.12 0 82 0 C82 13.86 82 27.72 82 42 C54.94 42 27.88 42 0 42 C0 28.14 0 14.28 0 0 Z " fill="#000000" transform="translate(87,107)"/>
<path d="M0 0 C3.09904251 2.81731137 4.79858995 5.82019471 5.33973312 10.03353882 C5.45238737 12.63481645 5.46781818 15.22052959 5.45068359 17.82421875 C5.45594055 18.81032135 5.46119751 19.79642395 5.46661377 20.81240845 C5.47978626 24.06260147 5.4710852 27.31230224 5.4609375 30.5625 C5.46295902 32.82641697 5.46587111 35.0903333 5.46963501 37.35424805 C5.47405465 42.09527801 5.46763874 46.83613823 5.45361328 51.57714844 C5.43652181 57.65011609 5.44636489 63.72268597 5.46433067 69.79563904 C5.47517812 74.46939076 5.47171771 79.1430484 5.4639473 83.81680298 C5.46194796 86.05587817 5.46439519 88.29496193 5.47138596 90.5340271 C5.47901604 93.66484159 5.46737385 96.79501446 5.45068359 99.92578125 C5.45979263 101.30994736 5.45979263 101.30994736 5.46908569 102.72207642 C5.41842637 107.85911237 4.92289871 111.42683276 2.0625 115.875 C-1.74612181 119.33738346 -5.63890931 119.32513967 -10.56640625 119.1640625 C-14.64428715 118.66692381 -16.8877719 117.07265369 -19.54175568 114.04467583 C-21.13028519 111.57531662 -21.31784554 110.31516099 -21.33190918 107.41018677 C-21.34325897 106.52145874 -21.35460876 105.63273071 -21.36630249 104.71707153 C-21.36337189 103.74970062 -21.36044128 102.78232971 -21.35742188 101.78564453 C-21.36589142 100.7608197 -21.37436096 99.73599487 -21.38308716 98.68011475 C-21.40650366 95.2892214 -21.40747812 91.89878062 -21.40625 88.5078125 C-21.41334917 86.15135516 -21.42104781 83.79489956 -21.42932129 81.43844604 C-21.44277713 76.49716387 -21.44433004 71.55604148 -21.43847656 66.61474609 C-21.43258213 60.28372251 -21.46315727 53.95346621 -21.50359344 47.62259102 C-21.52944917 42.75495271 -21.5323497 37.8874996 -21.52870178 33.01980209 C-21.53039527 30.68581083 -21.54005967 28.35181122 -21.55784607 26.01788712 C-21.57999069 22.7524516 -21.5703551 19.4885749 -21.55273438 16.22314453 C-21.56599762 15.25982208 -21.57926086 14.29649963 -21.59292603 13.3039856 C-21.53777105 8.90308429 -21.37492897 5.81998339 -18.58654785 2.29074097 C-13.53886835 -2.31237942 -6.24095243 -2.39015199 0 0 Z " fill="#000000" transform="translate(225.9375,69.125)"/>
<path d="M0 0 C2.70699512 2.29684435 4.80130597 4.29722885 5.44561005 7.88087273 C5.44933876 8.65107309 5.45306747 9.42127346 5.45690918 10.21481323 C5.46825897 11.10354126 5.47960876 11.99226929 5.49130249 12.90792847 C5.48690659 14.35898483 5.48690659 14.35898483 5.48242188 15.83935547 C5.49089142 16.8641803 5.49936096 17.88900513 5.50808716 18.94488525 C5.53150366 22.3357786 5.53247812 25.72621938 5.53125 29.1171875 C5.53834917 31.47364484 5.54604781 33.83010044 5.55432129 36.18655396 C5.56777713 41.12783613 5.56933004 46.06895852 5.56347656 51.01025391 C5.55758213 57.34127749 5.58815727 63.67153379 5.62859344 70.00240898 C5.65444917 74.87004729 5.6573497 79.7375004 5.65370178 84.60519791 C5.65539527 86.93918917 5.66505967 89.27318878 5.68284607 91.60711288 C5.70499069 94.8725484 5.6953551 98.1364251 5.67773438 101.40185547 C5.69762924 102.84683914 5.69762924 102.84683914 5.71792603 104.3210144 C5.66277105 108.72191571 5.49992897 111.80501661 2.71154785 115.33425903 C-1.46474922 119.14274136 -5.09336214 119.03957988 -10.49609375 118.9609375 C-13.76309 118.67866902 -15.50629431 117.96018699 -17.9375 115.75 C-21.32469995 110.46840696 -21.36606852 105.97251496 -21.32568359 99.90844727 C-21.33094055 98.93370453 -21.33619751 97.95896179 -21.34161377 96.9546814 C-21.35478634 93.74175861 -21.34608449 90.52933383 -21.3359375 87.31640625 C-21.33795918 85.07730515 -21.3408714 82.83820469 -21.34463501 80.59910583 C-21.3490548 75.9093498 -21.34263887 71.21976536 -21.32861328 66.5300293 C-21.31153168 60.52666067 -21.32135853 54.52369474 -21.33933067 48.52034092 C-21.35018616 43.89716067 -21.34671385 39.27407542 -21.3389473 34.65089226 C-21.33694967 32.43776336 -21.33938917 30.22462577 -21.34638596 28.01150703 C-21.3540282 24.9144224 -21.34235648 21.81798394 -21.32568359 18.72094727 C-21.33175629 17.81111588 -21.33782898 16.90128448 -21.34408569 15.96388245 C-21.28945935 10.47003354 -20.54238503 6.61662832 -17.9375 1.75 C-13.16903042 -2.72947142 -5.75666773 -2.44964584 0 0 Z " fill="#000000" transform="translate(45.9375,69.25)"/>
<path d="M0 0 C3.96 0 7.92 0 12 0 C15.3060603 3.3060603 15.35743306 4.28615953 15.4168396 8.75170898 C15.41076691 9.51427002 15.40469421 10.27683105 15.3984375 11.0625 C15.40274277 12.24404663 15.40274277 12.24404663 15.40713501 13.44946289 C15.40917522 15.11377685 15.40364832 16.77811481 15.39111328 18.44238281 C15.37505809 20.99077947 15.39096244 23.53759021 15.41015625 26.0859375 C15.40817381 27.7031285 15.40433011 29.32031852 15.3984375 30.9375 C15.40754654 32.08134155 15.40754654 32.08134155 15.4168396 33.24829102 C15.35743306 37.71384047 15.3060603 38.6939397 12 42 C8.04 42 4.08 42 0 42 C0 28.14 0 14.28 0 0 Z " fill="#000000" transform="translate(236,107)"/>
<path d="M0 0 C0 13.86 0 27.72 0 42 C-3.96 42 -7.92 42 -12 42 C-15.30029531 38.69970469 -15.36291973 37.70749032 -15.44248962 33.24829102 C-15.43955399 32.48572998 -15.43661835 31.72316895 -15.43359375 30.9375 C-15.44145653 29.75595337 -15.44145653 29.75595337 -15.44947815 28.55053711 C-15.45589751 26.88624246 -15.45456241 25.22190243 -15.44604492 23.55761719 C-15.43752989 21.00894598 -15.46630199 18.46251246 -15.49804688 15.9140625 C-15.49965886 14.29687567 -15.49908142 12.67968487 -15.49609375 11.0625 C-15.50732773 10.29993896 -15.51856171 9.53737793 -15.53013611 8.75170898 C-15.50170898 6.59765625 -15.50170898 6.59765625 -15 3 C-11 0 -11 0 0 0 Z " fill="#000000" transform="translate(20,107)"/>
</svg>
